<svg xmlns="http://www.w3.org/2000/svg" width="72" height="120"  stroke="none" stroke-linecap="round" stroke-linejoin="round" fill="#fff" fill-rule="evenodd">
    <path d="M35.5.5c19.33 0 35 16.5699 35 37v44c0 20.4301-15.67 37-35 37s-35-16.5699-35-37v-44c0-20.4301 15.67-37 35-37z" fill="#00445c"/>
    <path d="M31.416 47.5h9.3321c.9181.0159 1.6502.7717 1.6369 1.6899v5.2402c.0059.4398-.1633.864-.4703 1.1792s-.7268.4952-1.1666.5007H31.416a1.658 1.658 0 0 1-1.1666-.5007c-.307-.3152-.4762-.7394-.4703-1.1792v-5.2402A1.666 1.666 0 0 1 31.416 47.5zM45.1 65.24h8c.3741.0021.732.1531.9947.4194A1.408 1.408 0 0 1 54.5 66.66v4.42c.0033.7778-.6222 1.4123-1.4 1.42h-8c-.7777-.0077-1.4033-.6422-1.4-1.42v-4.42c-.0032-.3741.1427-.7341.4053-1.0006A1.408 1.408 0 0 1 45.1 65.24zm-12.9359 0h8c.374.0021.7319.1531.9946.4194a1.408 1.408 0 0 1 .4053 1.0006v4.42c.0034.7778-.6222 1.4123-1.3999 1.42h-8a1.414 1.414 0 0 1-1.4-1.42v-4.42c-.0033-.3741.1425-.7341.4052-1.0006s.6206-.4173.9948-.4194zm-13.2641 0h8a1.408 1.408 0 0 1 1.4 1.42v4.42c.0033.7778-.6223 1.4123-1.4 1.42h-8c-.7779-.0077-1.4034-.6422-1.4-1.42v-4.42c-.0032-.3741.1426-.7341.4052-1.0006s.6206-.4173.9948-.4194z" fill="#ededed"/>
    <g fill="#f87021">
        <path d="M22.9841 59.49H49.179a.955.955 0 0 1 0 1.86H22.9841a.956.956 0 0 1 0-1.86z"/>
        <path d="M49.179 59.49a.919.919 0 0 1 .9.9301V63.63a.9.9 0 0 1-.9.9.9.9 0 0 1-.8999-.9v-3.2099a.918.918 0 0 1 .8999-.9301zm-13.097-2.7a.918.918 0 0 1 .8999.9299V63.63a.9.9 0 0 1-.8999.9.9.9 0 0 1-.9-.9v-5.9101a.918.918 0 0 1 .9-.9299zm-13.2611 2.7c.5047.0099.9067.4253.9.9301V63.63a.9.9 0 0 1-.9.9.9.9 0 0 1-.8999-.9v-3.2099a.918.918 0 0 1 .8999-.9301z"/>
    </g>
</svg>