<svg xmlns="http://www.w3.org/2000/svg" width="72" height="120"  stroke="none" stroke-linecap="round" stroke-linejoin="round" fill="#ededed" fill-rule="evenodd">
    <path d="M35.5.5c19.3301 0 35 16.5699 35 37v44c0 20.4301-15.6699 37-35 37s-35-16.5699-35-37v-44c0-20.4301 15.6699-37 35-37z"/>
    <path d="M51.859 75.5H20.141c-.914-.0088-1.6482-.756-1.641-1.67V47.17a1.641 1.641 0 0 1 .8083-1.4549c.5137-.3021 1.1507-.3021 1.6644 0a1.641 1.641 0 0 1 .8083 1.4549v21.11h0v3.89h30.078c.9196 0 1.6649.7454 1.6649 1.665S52.7786 75.5 51.859 75.5zm-3.828-5H44.75c-.914-.0087-1.6482-.7559-1.641-1.67V57.1701c-.0072-.9141.727-1.6613 1.641-1.6701h3.281c.914.0088 1.6482.756 1.641 1.6701V68.83c.0072.9141-.727 1.6613-1.641 1.67zm-9.3 0H35.45a1.657 1.657 0 0 1-1.6409-1.67V50.5c-.0073-.9139.7269-1.6612 1.6409-1.67h3.281c.914.0088 1.6482.7561 1.6411 1.67v18.33c.0071.9128-.7254 1.6595-1.6381 1.67zm-9.2999 0H26.15a1.657 1.657 0 0 1-1.6409-1.67V65.5c-.0074-.9139.727-1.6612 1.6409-1.67h3.2811c.9139.0088 1.6481.7561 1.6409 1.67v3.33c.0072.9117-.7233 1.658-1.635 1.67z" fill="#00445c"/>
</svg>