<svg xmlns="http://www.w3.org/2000/svg" width="70" height="118" viewBox="0 0 70 118">
  <defs>
    <style>
      .cls-1, .cls-3 {
        fill: #efefef;
      }

      .cls-1, .cls-2, .cls-4 {
        fill-rule: evenodd;
      }

      .cls-2 {
        fill: #00445c;
      }

      .cls-4 {
        fill: #f87b39;
      }
    </style>
  </defs>
  <path id="Rounded_Rectangle_10" data-name="Rounded Rectangle 10" class="cls-1" d="M150,1397c19.33,0,35,16.57,35,37v44c0,20.43-15.67,37-35,37s-35-16.57-35-37v-44C115,1413.57,130.67,1397,150,1397Z" transform="translate(-115 -1397)"/>
  <g>
    <path class="cls-2" d="M156.836,1471.93s0.726,1.43-1.106,1-13.479-3.2-13.479-3.2-0.933-.04-0.484-1.29a8.79,8.79,0,0,0-.9-9.25c-3.145-4.55-5.184-15.26,4.977-19s16.383,2.28,17.489,5.05a20.606,20.606,0,0,1,1.452,4.7c0.069,1.49-1.21,1.74-.346,3.49s2.489,3.06,2.558,4.05-1.314.97-1.59,1.07-1.763.61-.761,1.92a0.814,0.814,0,0,1-.276,1.21c-0.788.56-.028,0.47,0.069,0.64a0.816,0.816,0,0,1-.138,1.36c-0.885.51-1.341,0.25-1.037,1.35s0.691,2.42,0,2.99-1.41.52-3.733,0.57-2.889,1.58-2.834,2.2S156.836,1471.93,156.836,1471.93Z" transform="translate(-115 -1397)"/>
    <circle class="cls-3" cx="27.609" cy="50.515" r="8.609"/>
    <path id="COG" class="cls-4" d="M147.262,1448.76a4.765,4.765,0,0,1-.458,1.08c0.029,0.03,1.052,1.31.423,1.93l-0.313.31c-0.471.46-1.65-.27-1.932-0.45a5.064,5.064,0,0,1-1.155.46h0.083s-0.224,1.66-1.125,1.66h-0.309c-0.687,0-1.07-1.42-1.136-1.69a4.964,4.964,0,0,1-1.14-.48l0.062,0.06s-1.332,1.04-1.969.41l-0.282-.24c-0.484-.48.3-1.75,0.453-1.99a4.681,4.681,0,0,1-.445-1.05c-0.265-.07-1.716-0.45-1.716-1.13v-0.31c0-.78,1.383-1.05,1.707-1.1a4.752,4.752,0,0,1,.443-1.06c-0.149-.23-0.961-1.5-0.472-1.99l0.3-.24c0.561-.56,1.71.23,1.978,0.42a5.1,5.1,0,0,1,1.09-.45c0.085-.33.466-1.67,1.13-1.67h0.309c0.773,0,1.046,1.29,1.109,1.66a5.214,5.214,0,0,1,1.106.45c0.291-.18,1.49-0.91,1.96-0.45l0.282,0.3c0.549,0.54-.213,1.65-0.434,1.94a4.8,4.8,0,0,1,.456,1.08c0.1,0.02,1.672.25,1.672,1.11v0.31C148.936,1448.29,147.613,1448.67,147.262,1448.76Zm-4.641-4.78a3.52,3.52,0,1,0,3.554,3.52A3.539,3.539,0,0,0,142.621,1443.98Zm0,5.87a2.35,2.35,0,1,1,2.369-2.35A2.358,2.358,0,0,1,142.621,1449.85Zm0-3.52a1.17,1.17,0,1,0,1.185,1.17A1.175,1.175,0,0,0,142.621,1446.33Z" transform="translate(-115 -1397)"/>
  </g>
</svg>
