<svg xmlns="http://www.w3.org/2000/svg" width="72" height="120"  stroke="#000" stroke-linecap="round" stroke-linejoin="round" fill="#fff" fill-rule="evenodd">
    <g stroke="none">
        <path d="M35.5.5c19.3301 0 35 16.5699 35 37v44c0 20.4301-15.6699 37-35 37s-35-16.5699-35-37v-44c0-20.4301 15.67-37 35-37z" fill="#00445c"/>
        <g fill="#ededed">
            <path d="M42.159 51.5h5.8811c1.8932-.0139 3.4407 1.5068 3.4599 3.4v6.7999c-.0075.9098-.3765 1.7793-1.0255 2.417s-1.5247.9914-2.4344.9831H42.159a3.429 3.429 0 0 1-2.4339-.9834A3.43 3.43 0 0 1 38.7 61.6999V54.9c.0193-1.8928 1.5662-3.4133 3.459-3.4z"/>
            <path d="M42.8511 64.4201h4.5c.4547-.0041.8923.1728 1.2167.4917s.5085.7535.5123 1.2082v9.1701c-.0038.4547-.188.8894-.5123 1.2082a1.714 1.714 0 0 1-1.2167.4917h-4.5c-.4548.004-.8926-.1728-1.2168-.4917a1.714 1.714 0 0 1-.5122-1.2082V66.12a1.714 1.714 0 0 1 1.729-1.6999z"/>
        </g>
        <path d="M45.1 66.29a.51.51 0 0 1 .3665.1461.511.511 0 0 1 .1526.3639v10.1899a.519.519 0 1 1-1.038 0V66.8c-.0004-.137.0544-.2682.1521-.3642A.509.509 0 0 1 45.1 66.29zm4.238-12.41a.457.457 0 0 1 .259.51v10.2a.321.321 0 0 1-.0446.4275c-.1222.1099-.3076.1099-.4298 0a.321.321 0 0 1-.0446-.4275v-10.2a.456.456 0 0 1 .26-.51zm-8.822 0a.457.457 0 0 1 .2601.51v10.2a.321.321 0 0 1-.0446.4275c-.1222.1099-.3076.1099-.4298 0a.321.321 0 0 1-.0446-.4275v-10.2a.457.457 0 0 1 .2589-.51zm4.67-11.38c2.105.0357 3.7855 1.7655 3.7608 3.8706s-1.7459 3.7946-3.8511 3.7807-3.8037-1.726-3.8008-3.8314c.0199-2.1291 1.7618-3.8393 3.8911-3.8199z" fill="#00445c"/>
    </g>
    <path d="M42 46.33c0-1.7662 1.4219-3.188 3.188-3.188s3.188 1.4218 3.188 3.188-1.4219 3.188-3.188 3.188S42 48.0962 42 46.33z" stroke="#ededed" stroke-linejoin="miter" fill-rule="nonzero"/>
    <g stroke="none" fill="#f36f25">
        <path d="M34.03 45.46h1.3831V74.2H34.03V45.46z"/>
        <path d="M34.7219 59.22v1.4H25.208v-1.4h9.5139zm0 13.5901V74.2H25.208v-1.3899h9.5139zm0-27.3501v1.39H25.208v-1.39h9.5139z"/>
        <path d="M19.5 59.84c0-1.7744 1.4285-3.203 3.203-3.203s3.203 1.4286 3.203 3.203-1.4286 3.203-3.203 3.203A3.196 3.196 0 0 1 19.5 59.84zm0 13.925a3.196 3.196 0 0 1 3.203-3.203c1.7744 0 3.203 1.4285 3.203 3.203s-1.4286 3.203-3.203 3.203-3.203-1.4286-3.203-3.203zm0-28.045a3.196 3.196 0 0 1 3.203-3.203c1.7744 0 3.203 1.4285 3.203 3.203s-1.4286 3.203-3.203 3.203A3.196 3.196 0 0 1 19.5 45.72z" fill-rule="nonzero"/>
    </g>
</svg>