<svg xmlns="http://www.w3.org/2000/svg" width="70" height="118" viewBox="0 0 70 118">
  <defs>
    <style>
      .cls-1 {
        fill: #00445c;
      }

      .cls-1, .cls-2, .cls-3 {
        fill-rule: evenodd;
      }

      .cls-2 {
        fill: #efefef;
      }

      .cls-3 {
        fill: #ededed;
      }
    </style>
  </defs>
  <path id="Rounded_Rectangle_10" data-name="Rounded Rectangle 10" class="cls-1" d="M750,1207c19.33,0,35,16.57,35,37v44c0,20.43-15.67,37-35,37s-35-16.57-35-37v-44C715,1223.57,730.67,1207,750,1207Z" transform="translate(-715 -1207)"/>
  <path id="BAR_GRAPH" data-name="BAR GRAPH" class="cls-2" d="M766.359,1282H734.641a1.657,1.657,0,0,1-1.641-1.67v-26.66a1.641,1.641,0,1,1,3.281,0v21.11h0v3.89h30.078A1.665,1.665,0,0,1,766.359,1282Z" transform="translate(-715 -1207)"/>
  <path class="cls-3" d="M762.531,1277H759.25a1.657,1.657,0,0,1-1.641-1.67v-11.66a1.657,1.657,0,0,1,1.641-1.67h3.281a1.657,1.657,0,0,1,1.641,1.67v11.66A1.657,1.657,0,0,1,762.531,1277Zm-9.3,0h-3.281a1.657,1.657,0,0,1-1.641-1.67V1257a1.657,1.657,0,0,1,1.641-1.67h3.281a1.657,1.657,0,0,1,1.641,1.67v18.33A1.657,1.657,0,0,1,753.234,1277Zm-9.3,0h-3.281a1.657,1.657,0,0,1-1.641-1.67V1272a1.657,1.657,0,0,1,1.641-1.67h3.281a1.657,1.657,0,0,1,1.641,1.67v3.33A1.657,1.657,0,0,1,743.937,1277Z" transform="translate(-715 -1207)"/>
</svg>
