<svg xmlns="http://www.w3.org/2000/svg" width="72" height="120"  stroke="none" stroke-linecap="round" stroke-linejoin="round" fill="#fff" fill-rule="evenodd">
    <path d="M35.5.5c19.33 0 35 16.5699 35 37v44c0 20.4301-15.67 37-35 37s-35-16.5699-35-37v-44c0-20.4301 15.67-37 35-37z" fill="#00445c"/>
    <path d="M42.3359 75.4301s.7261 1.4299-1.1059 1L27.7509 73.23s-.9329-.04-.484-1.29a8.79 8.79 0 0 0-.9-9.25c-3.1449-4.5499-5.1839-15.2599 4.9771-19s16.383 2.28 17.489 5.05a20.614 20.614 0 0 1 1.452 4.7c.069 1.4901-1.2101 1.7401-.3461 3.4901s2.4891 3.0599 2.558 4.0499-1.3139.97-1.5899 1.0701-1.763.61-.761 1.9199c.1432.1913.1952.4359.1419.669a.814.814 0 0 1-.4179.5411c-.788.5599-.028.47.0689.6399.2146.1732.3273.4431.2995.7174s-.1924.5161-.4374.6427c-.885.5099-1.3411.25-1.037 1.35s.6909 2.4199 0 2.99-1.41.52-3.733.5699-2.8891 1.5801-2.834 2.2001.1389 1.14.1389 1.14z" fill="#ededed"/>
    <path d="M19.5 51.015c0-4.7694 3.8396-8.609 8.609-8.609s8.609 3.8396 8.609 8.609-3.8396 8.609-8.609 8.609-8.609-3.8396-8.609-8.609z" fill="#00445c" fill-rule="nonzero"/>
    <path d="M32.762 52.26a4.762 4.762 0 0 1-.458 1.08c.029.03 1.052 1.31.4231 1.93l-.313.31c-.4711.46-1.65-.2699-1.9321-.45a5.058 5.058 0 0 1-1.155.46h.0831s-.224 1.66-1.125 1.66h-.3091c-.6869 0-1.07-1.42-1.136-1.6899a4.97 4.97 0 0 1-1.14-.4801l.062.06s-1.332 1.0401-1.969.4101l-.282-.24c-.484-.4801.3001-1.75.453-1.9901-.1905-.3305-.34-.6831-.4449-1.05-.2651-.07-1.7161-.45-1.7161-1.13v-.31c0-.7799 1.3831-1.05 1.707-1.1.1043-.3699.2531-.7258.443-1.0599-.149-.2301-.961-1.5-.472-1.99l.3-.2401c.5611-.56 1.71.2301 1.9781.42.3447-.1917.7104-.3427 1.0899-.45.085-.33.466-1.67 1.13-1.67h.309c.7731 0 1.046 1.29 1.109 1.66a5.212 5.212 0 0 1 1.1061.45c.2909-.1799 1.49-.91 1.9599-.45l.282.3c.549.54-.213 1.65-.4339 1.94.1955.34.3486.7028.4559 1.08.1.02 1.672.25 1.672 1.11v.31c-.0029.65-1.3259 1.0301-1.677 1.12zm-4.641-4.78c-1.9395.0188-3.4984 1.6029-3.486 3.5425s1.5917 3.5035 3.5313 3.4973S31.6749 52.9396 31.6751 51c-.0105-1.953-1.6011-3.5283-3.5541-3.52zm0 5.87c-1.2953-.0105-2.3379-1.0672-2.3309-2.3626s1.0609-2.3408 2.3562-2.3374S30.49 49.7046 30.49 51c-.0021.6259-.2529 1.2254-.6974 1.6661s-1.0456.6868-1.6716.6839zm0-3.52a1.17 1.17 0 0 0 .0199 2.3399c.6443-.0027 1.165-.5257 1.1652-1.1699-.0014-.3125-.1271-.6116-.3495-.8312a1.175 1.175 0 0 0-.8356-.3388z" fill="#f87b39"/>
</svg>